<svg xmlns="http://www.w3.org/2000/svg" version="1.1" xmlns:xlink="http://www.w3.org/1999/xlink" xmlns:svgjs="http://svgjs.dev/svgjs" width="1440" height="200" preserveAspectRatio="none" viewBox="0 0 1440 200"><g mask="url(&quot;#SvgjsMask1017&quot;)" fill="none"><path d="M 0,77 C 57.6,67.6 172.8,30.8 288,30 C 403.2,29.2 460.8,78.4 576,73 C 691.2,67.6 748.8,6.6 864,3 C 979.2,-0.6 1036.8,50.2 1152,55 C 1267.2,59.8 1382.4,32.6 1440,27L1440 200L0 200z" fill="rgba(39, 88, 106, 1)"></path><path d="M 0,163 C 96,156 288,129 480,128 C 672,127 768,156.8 960,158 C 1152,159.2 1344,138.8 1440,134L1440 200L0 200z" fill="rgba(10, 157, 127, 1)"></path></g><defs><mask id="SvgjsMask1017"><rect width="1440" height="200" fill="#ffffff"></rect></mask></defs></svg>